<svg version="1.2" xmlns="http://www.w3.org/2000/svg" viewBox="0 0 500 500" width="500" height="500"><style>.s0{fill:#ffffff}</style><path fill-rule="evenodd" class="s0" d="m236.8 72.1c2.4 5.6 3.7 11.8 3.7 18.1v329.6c0 17.8-10.3 33.3-25.1 39.1c-11.6 12.6-30.9 19.2-56.4 19.2c-32.7 0-54.1-16-61.2-45.4q-0.9-0.2-1.7-0.4c-1-0.3-2.6-0.7-3.1-0.7c-28.9 0-52.5-26.1-52.7-58.3c-8.1-5.7-14-14.5-16.6-24.9c-15.2-18.5-23.6-42.5-23.6-68c0-14.5 2.9-29 8.3-42.2c-5.4-9.5-8.3-20.5-8.3-31.8c0-20.6 9.6-39.5 24.8-50.3q-0.2-2.3-0.2-4.6c0-30.4 21.3-55.4 48.2-57.3c11.2-26.4 35.3-44 61.9-44q5.9 0 11.5 1.1c7.5-15.5 23.2-25.2 42.9-25.2c27.6 0 47 18.9 47.6 46zm-77.8 377.5c12.9 0 23.2-2 30-5.8c-10.5-5.5-19.7-15.7-22-33.6c-0.7-5.4 3.2-10.4 8.6-11.1c5.5-0.7 10.5 3.2 11.1 8.7c2.2 16.8 14.3 20.8 22.3 21.5c1.8-2.3 3.1-5.5 3.1-9.5v-300.5c-9.7 11.1-23.2 19.4-41.4 19.4c-5.4 0-9.9-4.4-9.9-9.9c0-5.5 4.4-10 9.9-10c24.3 0 35.2-23 39.6-36.2c-0.1-0.1-0.1-0.3-0.2-0.4c-1.3-2.3-1.9-5-1.8-7.7l0.1-1.3c0-16.9-13.4-18.7-19.2-18.7c-8.1 0-17.9 2.8-19 16.1c-0.4 4.7-3.1 8.9-7.2 11.2c-4.1 2.3-9 2.5-13.2 0.4c-4.8-2.4-9.9-3.6-15-3.6c-13.5 0-25.9 8.5-33.3 21.7c10.4 2 22.9 6.6 32.6 17.1c13.3 14.4 17.4 35.8 12.3 63.4c-4 21.7-2.1 36.7 5.5 43.5c9.1 8.2 26.1 3.2 26.3 3.2c5.2-1.6 10.8 1.3 12.4 6.5c1.6 5.2-1.2 10.8-6.4 12.4c-0.6 0.2-7.9 2.5-17.3 2.5c-8.8 0-19.5-2-28.1-9.7c-13.4-11.7-17.4-32.6-11.9-62.1c3.9-21 1.4-36.6-7.4-46.2c-7.6-8.4-18.9-11-26.8-11.8c-3.2 3.2-8 4.8-12.8 3.8c-1.4-0.3-2.6-0.4-3.7-0.4c-12.7 0-23.1 13-23.1 28.9c7.3-0.2 15.9 1.2 23.6 6.6c12.2 8.6 18.3 24.3 18 46.6c-0.1 5.5-4.5 9.9-9.9 9.9h-0.2c-5.5-0.1-9.8-4.6-9.8-10.1c0.2-10.6-1.4-24.4-9.5-30.1c-3.9-2.8-8.9-3.2-13.1-3c-1.5 2.3-3.6 4.2-6.4 5.4c-10.3 4.3-17.3 16.2-17.3 29.7c0 8.1 2.6 15.8 7.2 21.8c3 3.7 3.7 8.6 2.3 13c4.4 6.9 10 11.5 16.9 14.1c18.7 6.9 41.1-3.8 41.4-3.9c4.9-2.4 10.9-0.4 13.3 4.5c2.4 4.9 0.4 10.9-4.5 13.3c-0.4 0.2-3.4 1.7-8.2 3.3c6.4 4.7 12.4 10.7 16.9 18.4c9.4 16.2 9.8 35.8 1.2 58.2c-1.5 4-5.3 6.4-9.3 6.4c-1.1 0-2.3-0.2-3.5-0.6c-5.1-2-7.7-7.7-5.8-12.9c6.4-16.5 6.4-30.4 0.2-41.1c-11.2-19.3-39.5-24.4-39.8-24.4q-1.1-0.2-2.1-0.6c-2.2-0.5-4.5-1.1-6.7-2c-6.6-2.4-12.5-6.1-17.6-10.9c-1.2 5.7-1.9 11.5-1.9 17.4c0 19.9 6.7 38.4 19 52.1c1.8 2.1 3 4.6 3.4 7.3c0.9 5.7 4.3 10.3 8.5 11.7c6.7 2.1 10.8 8.8 9.7 15.7c-0.3 2-0.4 3.9-0.4 5.6c0 16.8 10.9 30.4 24.3 30.4c3.6 0 6.7 0.7 9.2 1.3c4.3-15.9 16.2-41 49.1-49.7c6.3-10.5 16.8-32.4 12.7-46.9c-1.5-5.5-4.9-9.3-10.7-12c-4.9-2.4-7.1-8.3-4.7-13.3c2.4-4.9 8.3-7 13.2-4.7c11 5.2 18.4 13.7 21.4 24.7c4.6 16.6-1.5 35.7-7.8 49.2c0.5 0 1-0.1 1.5-0.1c5.5 0 9.9 4.5 9.9 10c0 5.5-4.4 9.9-9.9 9.9c-40.8 0-52.5 24.6-55.9 38.5c1.6 2 2.6 4.4 2.9 7.1c2.3 23.1 12.5 32.5 35.1 32.4z" /><path fill-rule="evenodd" class="s0" d="m491.7 238.2c5.4 13.2 8.3 27.6 8.3 42.2c0 25.5-8.4 49.4-23.6 68c-2.6 10.4-8.5 19.2-16.6 24.9c-0.2 32.2-23.7 58.3-52.7 58.3c-0.5 0-2.1 0.4-3.1 0.7q-0.8 0.2-1.7 0.4c-7.1 29.4-28.5 45.4-61.2 45.4c-25.5 0-44.8-6.6-56.4-19.2c-14.8-5.8-25.1-21.3-25.1-39.1v-329.7c0-6.2 1.3-12.4 3.7-18c0.6-27.2 20-46 47.6-46c19.8 0 35.4 9.7 42.9 25.2q5.7-1.1 11.5-1.1c26.6 0 50.7 17.6 61.9 44c26.9 1.9 48.2 26.9 48.2 57.2q0 2.3-0.2 4.6c15.2 10.9 24.8 29.8 24.8 50.4c0 11.3-2.9 22.3-8.3 31.8zm-45.2 108.5c-9.4-4.2-20.9-11.6-27.6-23.9c-7.2-13.2-7.3-28.7-0.4-46.2c2-5.1 7.8-7.6 12.9-5.6c5.1 2 7.6 7.8 5.6 12.9c-4.6 11.7-4.9 21.6-0.7 29.3c4.3 8 12.6 12.9 19.2 15.8c10.3-13.3 16.1-30.4 16.1-48.6c0-13-3-25.8-8.8-37c-0.3-0.7-0.4-1.4-0.6-2c-18.1-8.6-61.2-25.9-90.6-13.5c-13.6 5.8-22.4 17.2-27.2 35c-2.5 9.1-1.9 16.2 1.8 21c6 7.9 19.8 9.7 24.6 9.8c5.5 0 9.9 4.5 9.9 9.9c0 5.5-4.5 9.9-9.9 9.9c-2.9 0-27.3-0.5-40.3-17.4c-7.7-10-9.5-22.9-5.3-38.4c2.9-11 7.4-20.3 13.2-28.1c-12.9-4.3-22.1-11.4-27.5-21.2c-9.8-17.9-2.1-37.4-1.8-38.2c2-5.1 7.8-7.6 12.9-5.5c5.1 2 7.6 7.8 5.6 12.9c-0.1 0.2-4.5 11.9 0.8 21.4c3.9 6.9 12.4 11.7 25.3 14.1q1.1 0.3 2.1 0.7c2.6-1.5 5.2-3 8.1-4.2c35.4-14.9 82.1 2.5 104.1 12.5c2.3-4.7 3.6-10.1 3.6-15.7c0-13.5-7-25.4-17.3-29.7c-6.6-2.7-10.1-9.8-8.4-16.6c0.7-2.9 1.1-5.8 1.1-8.6c0-16-10.4-29-23.1-29c-4.3 13.3-13.9 34-32.4 41.7q-7.1 2.9-14.7 2.9q-14.8 0-31.5-11.1c-4.5-3.1-5.7-9.3-2.7-13.8c3.1-4.6 9.3-5.8 13.8-2.7c10.9 7.3 20.1 9.4 27.5 6.3c10.6-4.4 17.6-19.1 21.2-29.7c-0.7-1.1-1.2-2.2-1.5-3.5c-5.3-20-21-34-38.3-34c-4.4 0-8.8 1-13 2.7c-0.1 3.7 0.5 7.7 2.3 10.9c2 3.6 5.6 5.9 10.9 7.2c5.3 1.2 8.6 6.6 7.4 11.9c-1.1 4.6-5.2 7.7-9.7 7.7q-1.1 0-2.3-0.3c-10.7-2.6-18.9-8.3-23.6-16.8c-4.7-8.2-5.3-17.3-4.7-24.3c-1.5-2-2.5-4.4-2.7-7c-1.1-13.3-10.9-16.1-19-16.1c-5.8 0-19.2 1.8-19.2 18.7l0.1 1.3c0.1 2.7-0.5 5.4-1.8 7.7c-1.3 2.4-2.1 5.1-2.1 7.9v329.7c0 3.3 1 6.2 2.3 8.4c8.9-17 26.6-41.4 53.9-36.6c5.4 1 9 6.1 8 11.5c-0.9 5.4-6.1 9-11.5 8.1c-16.2-2.8-28.3 16.8-34.2 29.1c6.1 6 18.3 9.3 34.7 9.3c22.6 0 32.8-9.4 35.1-32.4c0.5-4.8 3.3-9 7.6-11.2c3.5-1.9 7.7-2.1 11.4-0.8c0.5-0.1 1.1-0.3 1.6-0.4c0.3-0.1 0.6-0.1 0.8-0.2c-0.4-8.9-2.8-21.2-11.4-30.1c-10.3-10.5-27.4-14.4-51.1-11.5c-5.5 0.7-10.4-3.2-11.1-8.7c-0.7-5.4 3.2-10.4 8.7-11c30.2-3.7 53.1 2.2 67.9 17.5c11.7 12.2 15.6 27.6 16.6 39.6c8.4-4.9 14.2-15.3 14.2-27.6c0-1.7-0.1-3.6-0.4-5.6c-1.1-6.9 3-13.6 9.7-15.7c2.3-0.7 4.3-2.5 5.8-4.8z" /></svg>